<svg xmlns="http://www.w3.org/2000/svg" width="222" height="22" viewBox="0 0 222 22" fill="none">
    <path fill-rule="evenodd" clip-rule="evenodd" d="M212.04 15.6932C209.288 15.6932 207.132 15.0208 206.077 14.3811V22H201.33V0.373488H201.385V0.359324H205.842V0.373488H206.077V1.43133C207.208 0.726848 209.39 0 212.04 0C217.447 0 222 2.72475 222 7.84623C222 12.9677 217.447 15.6932 212.04 15.6932ZM211.313 3.95331C209.102 3.95331 207.197 4.49975 206.077 5.22808V10.6306C207.136 11.3694 209.115 11.8592 211.313 11.8592C214.158 11.8592 217.383 10.6008 217.383 7.90661C217.383 5.21094 214.158 3.95331 211.313 3.95331ZM192.629 15.2884H192.615V15.3033H187.934V15.2884H187.883V4.58175H181.892V0.359324H198.591V4.58175H192.629V15.2884ZM174.739 15.2884H174.434V9.94328H164.942V15.2884H164.756V15.3033H160.296V15.2884H160.195V0.373488H160.296V0.359324H164.756V0.373488H164.942V5.72085H174.434V0.373488H174.739V0.359324H179.197V15.3033H174.739V15.2884ZM140.641 9.0144C141.432 10.9609 144.12 11.8294 147.692 11.8294C151.583 11.8294 154.649 10.7521 156.073 9.85233V13.4471C155.282 14.285 152.151 15.6932 147.092 15.6932C141.4 15.6932 136.057 13.1474 136.057 7.84623C136.057 2.75606 140.768 0 146.145 0C152.056 0 157.021 3.56416 156.104 9.0144H140.641ZM146.27 3.714C143.644 3.714 141.243 4.61231 140.673 6.34855H151.868C151.202 4.61231 148.895 3.714 146.27 3.714ZM130.104 19.2566L129.946 15.3033H112.755V15.2884H112.731V0.373488H112.755V0.359324H117.31V0.373488H117.478V11.0816H126.179V0.373488H126.31V0.359324H130.769V0.373488H130.926V11.0816H134.057L133.804 19.2566H130.104ZM100.073 16.0346C97.8896 16.0346 96.1176 14.364 96.1176 12.3057C96.1176 10.2467 97.8896 8.57755 100.073 8.57755C102.258 8.57755 104.028 10.2467 104.028 12.3057C104.028 14.364 102.258 16.0346 100.073 16.0346ZM85.5963 19.2566L85.4389 15.3033H71.2423L71.0841 19.2566H66.9429L66.6881 11.3202H68.7441C70.9259 9.10386 72.4123 5.93033 72.4123 0.359324H86.5725V0.373488H86.6247V11.3202H89.9607L89.7075 19.2566H85.5963ZM81.8791 4.58175H76.3645C76.2055 7.42801 75.0679 10.0924 73.898 11.3202H81.8791V4.58175ZM63.6022 15.3033H59.1429V15.2884H58.938V6.03544L49.4451 15.026V15.2884H49.1683L49.1524 15.3033H44.694V0.359324H49.1524V0.373488H49.4451V9.60408L58.938 0.555386V0.373488H59.1286L59.1429 0.359324H63.6022V0.373488H63.686V15.2884H63.6022V15.3033ZM39.9523 15.3033H35.493V15.2884H35.2059V4.58175H26.5041V15.2884H26.1963V15.3033H21.7386V0.359324H39.9523V0.373488V15.2884V15.3033ZM10.3085 15.6932C4.90227 15.6932 0 12.9677 0 7.84623C0 2.72475 4.90227 0 10.3085 0C14.2606 0 16.853 1.40748 17.6425 2.39524V6.07943C16.3475 5.15205 14.1657 3.95331 10.4991 3.95331C7.65204 3.95331 4.61669 5.15204 4.61669 7.84623C4.61669 10.5419 7.65204 11.7399 10.4991 11.7399C14.1657 11.7399 16.3475 10.5419 17.6425 9.61303V13.2972C16.853 14.285 14.2606 15.6932 10.3085 15.6932Z" fill="white"/>
</svg>